<?xml version="1.0" encoding="UTF-8"?>
<svg width="32px" height="16px" viewBox="0 0 32 16" version="1.1" xmlns="http://www.w3.org/2000/svg"
>
  <title>切片</title>
  <g id="控件整理" stroke="none" stroke-width="1" fill="none" fill-rule="evenodd">
    <g id="画板" transform="translate(-169.000000, -327.000000)" fill="#0F1114" fill-rule="nonzero">
      <g id="一级导航" transform="translate(153.000000, 307.000000)">
        <g id="编组-2" transform="translate(16.000000, 18.000000)">
          <g id="系统LOGO-&amp;-分割线" transform="translate(0.000000, 2.000000)">
            <g id="pc端系统基座logo(1)" transform="translate(2.000000, 1.000000)">
              <path
                d="M26.3672578,0.00684601333 C26.6913594,0.00870206076 26.8043319,0.279684985 26.5932029,0.530251387 C26.5932029,0.530251387 23.392931,3.94576896 21.8131672,5.80181638 C21.6885249,5.98452251 21.4781419,6.0892406 21.2575644,6.07836745 L21.2575644,6.07836745 L21.2334883,6.07836745 C19.4129632,6.21385891 17.7239308,6.26954033 15.8941457,6.39946365 C15.8326168,6.40338655 15.7847528,6.45460706 15.7848772,6.51639464 L15.7848772,6.51639464 L15.753393,7.37912282 C15.7541638,7.44055315 15.801547,7.49125904 15.8626615,7.49605381 C17.7146707,7.63154527 19.4111112,7.68537065 21.2334883,7.81715001 C21.4539897,7.80664071 21.6642054,7.84921735 21.789091,8.03164294 L21.789091,8.03164294 L26.604315,13.4761822 L26.5969069,13.4594777 C26.809888,13.7137562 26.6969154,13.9958755 26.3654058,13.9958755 C25.7857269,14.0051557 25.1060395,13.9958755 24.5930329,13.9958755 C24.3633251,14.0048208 24.1360379,13.9461006 23.9392737,13.8269751 C21.1094036,12.3235767 16.8141081,9.91071507 14.0601704,8.42587713 C13.9759359,8.38866285 13.9035367,8.32894775 13.8508934,8.25326472 C13.8097973,8.17180517 13.7912504,8.08079136 13.7971851,7.98970599 C13.7971851,7.41247524 13.8045932,6.43374827 13.8045932,5.85466148 C13.7972802,5.76309899 13.9741618,5.6058759 14.0583184,5.56942014 C16.9104126,4.02518869 21.0705114,1.69028103 23.9429777,0.173890282 C24.1395551,0.054488933 24.3671121,-0.003654949 24.596737,0.00684601333 L24.596737,0.00684601333 Z M2.11149311,0.00127787106 C2.34684026,-0.00977381835 2.57998706,0.0510671406 2.78006844,0.175746329 C5.64512669,1.69028103 9.84866233,4.02518869 12.6989045,5.56942014 C12.7830611,5.6058759 12.9747589,5.76309899 12.9674459,5.85466148 C12.9674459,6.43374827 12.9600378,7.41247524 12.9600378,7.98970599 C12.96749,8.08067922 12.9495349,8.17193609 12.9081816,8.25326472 C12.8555382,8.32894775 12.7831391,8.38866285 12.6989045,8.42587713 C9.94311483,9.91071507 5.6062345,12.3235767 2.77451241,13.8269751 C2.57774819,13.9461006 2.35046098,14.0048208 2.12075316,13.9958755 C1.60774661,13.9958755 0.928059226,14.0051557 0.346528333,13.9958755 C0.00205461968,14.0107238 -0.103509906,13.7360288 0.111323163,13.4761822 L4.8783949,8.09370108 C5.00303715,7.91099495 5.21342021,7.80627686 5.43399766,7.81715001 C7.25637473,7.68537065 8.95281516,7.63154527 10.8048244,7.49605381 C10.8656214,7.49120313 10.9124333,7.44024489 10.9122409,7.37912282 L10.9437251,6.51639464 C10.9448419,6.45491676 10.8975357,6.40342044 10.8363086,6.39946365 C9.00837548,6.26954033 7.31749107,6.21385891 5.49696602,6.07836745 L5.47474191,6.07836745 C5.25439164,6.08815718 5.04450549,5.98368643 4.91913914,5.80181638 C4.37615928,5.163043 3.64265461,4.34392771 2.9125324,3.54262182 L2.57649918,3.17477444 C1.29470577,1.77507211 0.116879191,0.526539292 0.116879191,0.526539292 C-0.0942498594,0.27597289 0.0187227026,0.00127787106 0.340972305,0.00127787106 L2.11149311,0.00127787106 L2.11149311,0.00127787106 Z"
                id="形状结合"></path>
            </g>
          </g>
        </g>
      </g>
    </g>
  </g>
</svg>
